<svg width="14" height="14" viewBox="0 0 14 14" fill="none" xmlns="http://www.w3.org/2000/svg">
<path fill-rule="evenodd" clip-rule="evenodd" d="M1.5 6.33333C1.5 3.66396 3.66396 1.5 6.33333 1.5C9.00271 1.5 11.1667 3.66396 11.1667 6.33333C11.1667 7.63926 10.6487 8.82422 9.80709 9.69401C9.78572 9.70947 9.7653 9.72681 9.74606 9.74606C9.72681 9.7653 9.70947 9.78572 9.69401 9.80709C8.82422 10.6487 7.63926 11.1667 6.33333 11.1667C3.66396 11.1667 1.5 9.00271 1.5 6.33333ZM10.0895 10.7966C9.07465 11.6515 7.76415 12.1667 6.33333 12.1667C3.11167 12.1667 0.5 9.55499 0.5 6.33333C0.5 3.11167 3.11167 0.5 6.33333 0.5C9.55499 0.5 12.1667 3.11167 12.1667 6.33333C12.1667 7.76415 11.6515 9.07465 10.7966 10.0895L13.3532 12.6461C13.5484 12.8413 13.5484 13.1579 13.3532 13.3532C13.1579 13.5484 12.8413 13.5484 12.6461 13.3532L10.0895 10.7966Z" fill="white"/>
</svg>
